<svg width="20" height="20" viewBox="0 0 20 20" fill="none" xmlns="http://www.w3.org/2000/svg">
<path d="M11.8323 10.0165L19.6199 2.22871C20.1267 1.72214 20.1267 0.903093 19.6199 0.396527C19.1134 -0.11004 18.2943 -0.11004 17.7878 0.396527L9.9999 8.18437L2.21229 0.396527C1.70548 -0.11004 0.886671 -0.11004 0.380104 0.396527C-0.126701 0.903093 -0.126701 1.72214 0.380104 2.22871L8.16772 10.0165L0.380104 17.8044C-0.126701 18.311 -0.126701 19.13 0.380104 19.6366C0.632557 19.8893 0.964495 20.0162 1.2962 20.0162C1.6279 20.0162 1.9596 19.8893 2.21229 19.6366L9.9999 11.8487L17.7878 19.6366C18.0404 19.8893 18.3721 20.0162 18.7038 20.0162C19.0355 20.0162 19.3672 19.8893 19.6199 19.6366C20.1267 19.13 20.1267 18.311 19.6199 17.8044L11.8323 10.0165Z" fill="#C7C7C7"/>
</svg>
