<svg width="40" height="40" viewBox="0 0 40 40" fill="none" xmlns="http://www.w3.org/2000/svg">
<rect width="40" height="40" rx="4" fill="#E60023"/>
<g clip-path="url(#clip0_149_2647)">
<path d="M20.2447 10.999C15.3114 10.999 12.6877 14.1604 12.6877 17.6076C12.6877 19.2063 13.581 21.1999 15.011 21.8321C15.2281 21.93 15.3462 21.8884 15.3946 21.687C15.4374 21.534 15.6253 20.7971 15.7164 20.4495C15.7445 20.3381 15.7299 20.2413 15.6399 20.1367C15.1651 19.5877 14.7882 18.5875 14.7882 17.6492C14.7882 15.245 16.6997 12.9105 19.9522 12.9105C22.7648 12.9105 24.7325 14.7376 24.7325 17.3511C24.7325 20.3043 23.1698 22.3474 21.1391 22.3474C20.0152 22.3474 19.1782 21.4654 19.4437 20.3741C19.7643 19.0746 20.3932 17.6773 20.3932 16.7402C20.3932 15.8997 19.9184 15.2045 18.9487 15.2045C17.8045 15.2045 16.8763 16.3374 16.8763 17.8585C16.8763 18.8249 17.2183 19.4774 17.2183 19.4774C17.2183 19.4774 16.0865 24.0496 15.8761 24.9035C15.5206 26.3492 15.9245 28.6904 15.9594 28.8918C15.9808 29.0032 16.1056 29.0381 16.1754 28.947C16.2868 28.8007 17.6548 26.8487 18.0385 25.4379C18.178 24.9238 18.7506 22.8391 18.7506 22.8391C19.1275 23.5197 20.2155 24.0901 21.3743 24.0901C24.8214 24.0901 27.3123 21.0604 27.3123 17.3004C27.2999 13.6958 24.215 10.999 20.2447 10.999Z" fill="white"/>
</g>
<defs>
<clipPath id="clip0_149_2647">
<rect width="18" height="18" fill="white" transform="translate(11 10.999)"/>
</clipPath>
</defs>
</svg>
