<svg width="16" height="16" viewBox="0 0 16 16" fill="none" xmlns="http://www.w3.org/2000/svg">
<path d="M11.3452 8.18675C12.0607 7.38969 12.5 6.34006 12.5 5.1875C12.5 2.70631 10.4812 0.6875 8 0.6875C5.51881 0.6875 3.5 2.70631 3.5 5.1875C3.5 7.66869 5.51881 9.6875 8 9.6875C8.87469 9.6875 9.68919 9.43269 10.3811 8.999C12.8279 9.92094 14.5126 12.1602 14.7269 14.75H1.27362C1.41931 13.0068 2.23719 11.3812 3.5675 10.2213C3.80206 10.0171 3.82625 9.66219 3.62206 9.42762C3.41844 9.19363 3.06294 9.16887 2.82838 9.37306C1.10994 10.8704 0.125 13.0349 0.125 15.3125C0.125 15.6236 0.377 15.875 0.6875 15.875H15.3125C15.6236 15.875 15.875 15.6236 15.875 15.3125C15.875 12.2266 14.0863 9.47094 11.3452 8.18675ZM4.625 5.1875C4.625 3.32619 6.13869 1.8125 8 1.8125C9.86131 1.8125 11.375 3.32619 11.375 5.1875C11.375 7.04881 9.86131 8.5625 8 8.5625C6.13869 8.5625 4.625 7.04881 4.625 5.1875Z" fill="#EF454E"/>
</svg>
