<svg width="40" height="40" viewBox="0 0 40 40" fill="none" xmlns="http://www.w3.org/2000/svg">
<rect width="40" height="40" rx="4" fill="#1DA1F2"/>
<g clip-path="url(#clip0_149_2654)">
<path d="M29 14.4179C28.3306 14.7115 27.6174 14.9061 26.8738 15.0006C27.6388 14.5439 28.2226 13.8261 28.4971 12.961C27.7839 13.3863 26.9964 13.6866 26.1571 13.8543C25.4799 13.1331 24.5146 12.6865 23.4616 12.6865C21.4186 12.6865 19.7739 14.3448 19.7739 16.3776C19.7739 16.6701 19.7986 16.9514 19.8594 17.2191C16.7915 17.0695 14.0769 15.5991 12.2533 13.3593C11.9349 13.9116 11.7481 14.5439 11.7481 15.2245C11.7481 16.5025 12.4063 17.6354 13.3873 18.2913C12.7944 18.28 12.2128 18.1079 11.72 17.8368C11.72 17.848 11.72 17.8626 11.72 17.8773C11.72 19.6705 12.9991 21.16 14.6765 21.5031C14.3761 21.5853 14.0488 21.6246 13.709 21.6246C13.4728 21.6246 13.2343 21.6111 13.0104 21.5616C13.4885 23.023 14.8453 24.0974 16.4585 24.1323C15.203 25.1144 13.6089 25.7061 11.8831 25.7061C11.5805 25.7061 11.2903 25.6926 11 25.6555C12.6346 26.7096 14.5719 27.3115 16.661 27.3115C23.4515 27.3115 27.164 21.6865 27.164 16.8108C27.164 16.6476 27.1584 16.4901 27.1505 16.3338C27.8829 15.814 28.4983 15.1649 29 14.4179Z" fill="white"/>
</g>
<defs>
<clipPath id="clip0_149_2654">
<rect width="18" height="18" fill="white" transform="translate(11 10.999)"/>
</clipPath>
</defs>
</svg>
