<svg width="40" height="40" fill="none" xmlns="http://www.w3.org/2000/svg"><rect width="40" height="40" rx="4" fill="#E60023"/><g clip-path="url(#a)"><path d="M20.245 10.999c-4.934 0-7.557 3.161-7.557 6.609 0 1.598.893 3.592 2.323 4.224.217.098.335.056.384-.145.042-.153.23-.89.321-1.238a.318.318 0 0 0-.076-.312c-.475-.55-.852-1.55-.852-2.488 0-2.404 1.912-4.739 5.164-4.739 2.813 0 4.78 1.828 4.78 4.441 0 2.953-1.562 4.996-3.593 4.996-1.124 0-1.96-.882-1.695-1.973.32-1.3.95-2.697.95-3.634 0-.84-.476-1.535-1.445-1.535-1.145 0-2.073 1.132-2.073 2.653 0 .967.342 1.62.342 1.62l-1.342 5.425c-.355 1.446.049 3.787.083 3.989.022.111.147.146.216.055.112-.146 1.48-2.098 1.863-3.51l.713-2.598c.377.68 1.464 1.251 2.623 1.251 3.447 0 5.938-3.03 5.938-6.79-.012-3.604-3.097-6.3-7.067-6.3Z" fill="#fff"/></g><defs><clipPath id="a"><path fill="#fff" transform="translate(11 10.999)" d="M0 0h18v18H0z"/></clipPath></defs></svg>