<svg width="16" height="16" fill="none" xmlns="http://www.w3.org/2000/svg"><path d="M11.345 8.187a4.476 4.476 0 0 0 1.155-3c0-2.48-2.019-4.5-4.5-4.5a4.505 4.505 0 0 0-4.5 4.5c0 2.482 2.019 4.5 4.5 4.5.875 0 1.69-.254 2.381-.688a6.738 6.738 0 0 1 4.346 5.751H1.274a6.754 6.754 0 0 1 2.293-4.529.562.562 0 1 0-.739-.848 7.875 7.875 0 0 0-2.703 5.94c0 .31.252.562.563.562h14.624a.562.562 0 0 0 .563-.563 7.86 7.86 0 0 0-4.53-7.125Zm-6.72-3A3.378 3.378 0 0 1 8 1.813a3.378 3.378 0 0 1 3.375 3.375A3.378 3.378 0 0 1 8 8.563a3.378 3.378 0 0 1-3.375-3.374Z" fill="#EF454E"/></svg>