<svg width="40" height="40" fill="none" xmlns="http://www.w3.org/2000/svg"><rect width="40" height="40" rx="4" fill="#1DA1F2"/><g clip-path="url(#a)"><path d="M29 14.418a7.695 7.695 0 0 1-2.126.583 3.67 3.67 0 0 0 1.623-2.04c-.713.425-1.5.726-2.34.893a3.689 3.689 0 0 0-6.383 2.523c0 .293.025.574.085.842a10.445 10.445 0 0 1-7.606-3.86 3.715 3.715 0 0 0-.505 1.866c0 1.278.658 2.41 1.64 3.066a3.645 3.645 0 0 1-1.668-.454v.04a3.707 3.707 0 0 0 2.957 3.626 3.68 3.68 0 0 1-.968.122 3.3 3.3 0 0 1-.699-.063 3.725 3.725 0 0 0 3.449 2.57 7.415 7.415 0 0 1-4.576 1.574c-.302 0-.593-.013-.883-.05a10.389 10.389 0 0 0 5.661 1.655c6.79 0 10.503-5.625 10.503-10.5 0-.163-.006-.32-.014-.477A7.361 7.361 0 0 0 29 14.418Z" fill="#fff"/></g><defs><clipPath id="a"><path fill="#fff" transform="translate(11 10.999)" d="M0 0h18v18H0z"/></clipPath></defs></svg>